<svg width="180" height="52" viewBox="0 0 180 52" fill="none" xmlns="http://www.w3.org/2000/svg">
<g clip-path="url(#clip0_5104_119650)">
<path d="M168.424 20.3772L149.391 9.70592C148.428 9.15935 147.36 8.87305 146.267 8.87305C142.804 8.87305 139.992 11.6059 139.992 14.9895V35.0826L124.396 26.3374L137.753 18.8415C138.898 18.2169 139.601 17.0456 139.601 15.7963C139.601 14.495 138.898 13.3498 137.701 12.6991C136.529 12.0744 135.123 12.0744 133.951 12.7251L119.136 21.0539C117.105 22.173 115.934 24.1511 115.934 26.3374C115.934 28.5237 117.131 30.5018 119.11 31.621L138.091 42.2922C139.054 42.8388 140.122 43.1251 141.216 43.1251C144.678 43.1251 147.49 40.3922 147.49 37.0087V16.9155L163.113 25.6867L149.756 33.1826C148.61 33.8073 147.907 34.9785 147.907 36.2539C147.907 37.5552 148.61 38.7004 149.808 39.3511C150.979 39.9758 152.385 39.9758 153.557 39.3251L168.398 30.9963C170.403 29.8771 171.575 27.8991 171.575 25.7128C171.601 23.4744 170.429 21.4963 168.424 20.3772Z" fill="#BE1622"/>
<path d="M33.5261 13.3506C33.5261 11.0341 31.6514 9.16016 29.3342 9.16016H16.7583C12.1497 9.18618 8.40039 12.9341 8.40039 17.541V21.7314V30.1122V38.493C8.40039 40.8095 10.2751 42.6834 12.5924 42.6834C14.9096 42.6834 16.7843 40.8095 16.7843 38.493V34.7971C16.7843 32.2204 18.8933 30.1122 21.471 30.1122H29.3602C31.6775 30.1122 33.5521 28.2382 33.5521 25.9218C33.5521 23.6054 31.6775 21.7314 29.3602 21.7314H18.8673C17.7216 21.7314 16.7843 20.7944 16.7843 19.6492C16.7843 18.504 17.7216 17.567 18.8673 17.567H29.3342C31.6514 17.541 33.5261 15.667 33.5261 13.3506Z" fill="white"/>
<path d="M40.5045 42.6845C38.1872 42.6845 36.3125 40.8105 36.3125 38.4941V25.9228C36.3125 23.6064 38.1872 21.7324 40.5045 21.7324C42.8218 21.7324 44.6964 23.6064 44.6964 25.9228V38.4941C44.6964 40.7845 42.8218 42.6845 40.5045 42.6845Z" fill="white"/>
<path d="M40.503 19.9884C43.3933 19.9884 45.7364 17.6462 45.7364 14.7569C45.7364 11.8676 43.3933 9.52539 40.503 9.52539C37.6126 9.52539 35.2695 11.8676 35.2695 14.7569C35.2695 17.6462 37.6126 19.9884 40.503 19.9884Z" fill="white"/>
<path d="M47.9502 13.3506V32.6889C47.9502 38.2067 52.4286 42.6574 57.9224 42.6574H68.884C71.2013 42.6574 73.0759 40.7834 73.0759 38.467C73.0759 36.1506 71.2013 34.2766 68.884 34.2766H60.5C58.1827 34.2766 56.3081 32.4026 56.3081 30.0862V13.3506C56.3081 11.0341 54.4334 9.16016 52.1161 9.16016C49.8249 9.18618 47.9502 11.0602 47.9502 13.3506Z" fill="white"/>
<path d="M99.2445 9.18555H85.3667C79.8729 9.18555 75.3945 13.6362 75.3945 19.154V38.3623C75.3945 40.6006 77.0869 42.5266 79.3001 42.6828C81.7476 42.839 83.7785 40.9129 83.7785 38.4924V19.6486C83.7785 18.5034 84.7158 17.5664 85.8614 17.5664C87.007 17.5664 87.9444 18.5034 87.9444 19.6486V38.3362C87.9444 40.5746 89.6368 42.5006 91.8499 42.6568C94.2974 42.8129 96.3283 40.8869 96.3283 38.4664V19.6486C96.3283 18.5034 97.2656 17.5664 98.4113 17.5664C99.5569 17.5664 100.494 18.5034 100.494 19.6486V38.3362C100.494 40.5746 102.187 42.5006 104.4 42.6568C106.847 42.8129 108.878 40.8869 108.878 38.4664V18.8417C108.93 13.5061 104.582 9.18555 99.2445 9.18555Z" fill="white"/>
</g>
<defs>
<clipPath id="clip0_5104_119650">
<rect width="163.2" height="34.2" fill="white" transform="translate(8.40039 8.90039)"/>
</clipPath>
</defs>
</svg>
