<svg width="200" height="80" viewBox="0 0 40 40" fill="none" xmlns="http://www.w3.org/2000/svg">
  <path d="M40 16.0148L33.7143 12.3144V5.41192L26.2143 1L20 4.70032L13.7857 1L6.28571 5.41192V12.3144L0 16.0148V23.9135L6.07143 27.685V34.7299L13.5 38.8572L20.1429 35.1568L26.5714 38.786L33.7857 34.801H33.7143L33.7857 34.7299V27.6139L33.7143 27.5427L39.9286 23.9135L40 16.0148ZM31.5714 12.3144L27.5 14.6627V9.96617L31.5714 7.61788V12.3144ZM26.2143 3.63292L30.2143 5.9812L26.2143 8.32948L22.2143 5.9812L26.2143 3.63292ZM13.7857 3.63292L17.7857 5.9812L13.7857 8.32948L9.78572 5.9812L13.7857 3.63292ZM8.57143 7.61788L12.6429 9.96617V14.6627L8.57143 12.3144V7.61788ZM6.07143 25.1944L2 22.8461V18.1496L6 20.4979L6.07143 25.1944ZM7.28572 18.8612L3.28571 16.5129L7.28572 14.1646L11.2857 16.5129L7.28572 18.8612ZM12.4286 35.9396L8.35714 33.5913V28.8947L12.4286 31.243V35.9396ZM18.5 33.5913L14.4286 35.9396V31.243L14.5 31.3142H14.4286L18.5 28.9659V33.5913ZM25.5 35.9396L21.4286 33.5913V28.8947L25.5 31.243V35.9396ZM31.7857 33.449L27.7143 35.7973V31.1007L31.7857 28.7524V33.449ZM31.7143 26.1907L26.5 29.3929L20.1429 25.6925L13.5 29.3929L8.42857 26.333L8.35714 20.7825L14.7143 17.0822V10.2508L20.2143 7.19092L25.3571 10.1796H25.4286V10.2508L25.5 17.0822L31.9286 20.7113H32L31.7143 26.1907ZM32.6429 18.79L28.6429 16.4417L32.6429 14.0934L36.6429 16.4417L32.6429 18.79ZM37.9286 22.7038L33.8571 25.0521V20.3555L37.9286 18.0073V22.7038Z" fill="white"/>
</svg>