<svg width="200" height="80" viewBox="0 0 200 80" fill="none" xmlns="http://www.w3.org/2000/svg">
<path fill-rule="evenodd" clip-rule="evenodd" d="M86.0102 20.0267H83.835H83.6387C83.246 20.0267 82.8748 20.2217 82.6508 20.5478C82.5158 20.7519 82.4483 20.9956 82.4514 21.2424C82.4514 25.2795 82.4514 29.3166 82.4514 33.3567C82.4514 38.9994 82.4514 44.6422 82.4514 50.2849C82.4514 52.4025 82.4176 54.5078 83.9424 56.1958C86.4397 58.9593 91.4343 59.1817 94.9379 59.4285C99.7576 59.7667 105.234 59.5503 109.719 57.6065C109.928 57.6979 110.149 57.7801 110.376 57.8624C117.193 60.2907 124.798 60.8783 131.778 58.4291C132.278 58.3194 134.036 57.4572 134.389 57.6034C135.198 57.9355 136.033 58.1975 136.886 58.3895C140.485 59.1329 144.157 59.4376 147.829 59.2914H147.881C150.05 59.2914 152.238 59.0354 154.361 58.6211C156.186 58.2646 158.165 57.8776 159.641 56.6802C162.218 54.5901 161.672 51.0466 161.672 48.1034C161.672 45.0504 161.672 41.9975 161.672 38.9476C161.672 38.2743 161.672 37.6009 161.672 36.9276C161.663 36.2573 161.123 35.721 160.463 35.7241H158.095C156.714 35.721 155.456 36.5284 154.864 37.7959C154.637 38.2743 154.517 38.7983 154.517 39.3315C154.517 41.2175 154.517 43.1066 154.517 44.9925C154.517 46.3971 154.517 47.8017 154.517 49.2063C154.517 50.1844 154.867 52.1496 154.085 52.829C153.71 53.152 153.216 53.2982 152.735 53.4171C148.719 54.4164 144.488 54.3646 140.408 53.673C137.484 53.1764 137.984 51.2386 137.984 48.8773C137.984 47.491 137.984 46.1077 137.984 44.7214C137.984 42.5307 138.294 40.078 137.763 37.9391C136.386 32.3847 127.835 32.4 123.319 32.2842C120.798 32.2171 118.27 32.3725 115.772 32.7443C112.873 33.1769 109.259 33.4572 107.317 35.9434C105.304 38.5211 106.111 42.1803 106.111 45.1936C106.111 46.6104 106.111 48.0272 106.111 49.444C106.111 51.3483 106.305 52.9996 104.194 53.8162C103.448 54.1056 102.638 54.194 101.841 54.2519C99.1103 54.456 96.3553 54.3677 93.6432 53.9899C91.2103 53.6517 89.3021 52.8229 89.3727 50.0747C89.4616 46.5312 89.5905 42.9999 89.5905 39.4443C89.5905 36.4279 89.5905 33.4085 89.5905 30.3921C89.5905 28.3812 89.5905 26.3733 89.5905 24.3624C89.5905 24.1186 89.5905 23.8779 89.5905 23.6342C89.5874 23.0766 89.4555 22.5282 89.207 22.0285C88.6026 20.7976 87.3631 20.0237 86.0102 20.0267ZM39.2118 20.0267H41.5803C42.5283 20.0267 43.4333 20.4076 44.1052 21.087L44.1819 21.1693C44.3629 21.3613 44.5224 21.5745 44.6544 21.8C44.9826 22.3545 45.1575 22.9883 45.1575 23.6342V58.1214C45.1575 58.4443 45.0317 58.7521 44.8047 58.9806C44.5777 59.2061 44.2739 59.331 43.9549 59.3279H41.5864C41.0894 59.3279 40.6016 59.2152 40.1537 58.9989C39.7395 58.8008 39.3683 58.5297 39.0523 58.1945C38.3927 57.4968 38.0153 56.5736 38 55.6077V21.2424C38.0276 20.5782 38.5584 20.0511 39.2118 20.0389V20.0267ZM67.2774 46.385C68.48 46.26 69.6765 46.1168 70.8638 45.9828C71.1552 45.9493 71.4436 45.9157 71.7381 45.9157H71.7504V52.4878C71.7596 52.8564 71.6338 53.2129 71.3945 53.4902C69.971 54.9709 66.6822 54.6967 64.8015 54.7638C62.8963 54.8308 60.985 54.782 59.086 54.6175C57.7514 54.5017 55.8708 53.8924 54.8921 55.1416C54.6988 55.3914 54.5485 55.6687 54.4442 55.9703C54.3122 56.339 54.2141 56.7168 54.1466 57.1007C54.0024 57.6918 54.3061 58.3042 54.8614 58.5357C55.0516 58.6089 55.2602 58.6759 55.4903 58.7399C60.9421 59.6082 66.8417 59.8398 72.2628 58.6698C73.4347 58.4169 74.6067 58.0848 75.6344 57.4754C76.9138 56.7168 77.828 55.5194 78.1808 54.0813C78.3066 53.5572 78.368 53.0179 78.3649 52.4786V27.0893C78.3649 26.5378 78.2913 25.9894 78.1471 25.4593C76.9383 20.9743 70.7134 20.502 66.8478 20.1517C64.0223 19.8927 61.1691 19.9658 58.3589 20.371C55.88 20.7275 52.6279 21.0931 50.7289 22.8755L50.6491 22.9548C50.2319 23.4087 49.8852 23.9236 49.6152 24.4812C49.468 24.789 49.3452 25.1089 49.2471 25.4379C49.0262 26.221 48.9157 27.0314 48.9127 27.8449V28.11V40.1481C48.9035 40.2364 48.9035 40.3278 48.9127 40.4162C48.9618 40.7696 49.0292 41.117 49.1244 41.4613C49.3851 42.485 49.9036 43.4173 50.6338 44.1699C50.7872 44.3283 50.9498 44.4776 51.1185 44.6147C51.8947 45.2241 52.7813 45.6689 53.7293 45.9249C58.1564 47.1071 62.7521 46.8572 67.2774 46.385ZM71.7412 27.4915V40.7026C66.9123 41.2693 62.1508 42.0005 57.2912 41.315C57.1255 41.2876 56.9629 41.248 56.8034 41.1962C56.7175 41.1718 56.6347 41.1474 56.5549 41.1139C56.3739 41.0438 56.2021 40.9402 56.0548 40.8123C55.9137 40.6904 55.8002 40.5381 55.7204 40.3705C55.61 40.1389 55.5394 39.8891 55.5057 39.6332V38.3413V35.4316V32.4883V29.478V29.0149C55.4596 27.848 55.7756 26.5683 56.9691 26.1082C57.3955 25.9437 57.8526 25.8828 58.3067 25.8249C60.5494 25.5385 62.8074 25.2947 65.0715 25.3343C67.1976 25.3709 69.5139 25.5476 71.3915 26.6262C71.5111 26.7481 71.6031 26.8913 71.6676 27.0497C71.7167 27.1899 71.7443 27.3392 71.7412 27.4915ZM118.429 54.0051C119.567 54.1026 120.798 54.1513 122.058 54.1513H122.494C123.936 54.1453 125.375 54.0569 126.808 53.8893C128.084 53.8375 129.33 53.481 130.443 52.8473L130.495 52.7894C130.606 52.6828 130.695 52.5518 130.756 52.4116C130.808 52.2684 130.833 52.1191 130.827 51.9668V39.7733C130.827 39.621 130.799 39.4717 130.741 39.3315C130.679 39.1883 130.59 39.0603 130.48 38.9537L130.449 38.9232C130.296 38.7922 130.127 38.6856 129.946 38.6033C127.384 37.8081 124.709 37.4669 122.037 37.5948C120.233 37.6812 116.294 37.802 113.637 38.9141L113.597 38.9598C113.542 39.0146 113.493 39.0725 113.45 39.1365C113.407 39.2005 113.37 39.2675 113.339 39.3376C113.281 39.4778 113.254 39.6271 113.254 39.7794V51.9729C113.254 52.1252 113.281 52.2745 113.339 52.4146C113.392 52.5365 113.462 52.6493 113.548 52.7468L113.597 52.7925L113.652 52.8534C113.787 52.9661 113.938 53.0606 114.097 53.1337C115.478 53.6547 116.932 53.9503 118.405 54.0081L118.429 54.0051ZM159.472 24.2436H156.852C155.462 24.2405 154.333 25.38 154.324 26.7907V28.7955C154.333 30.2062 155.465 31.3458 156.852 31.3458H159.472C160.862 31.3488 161.991 30.2093 162 28.7955V26.7938C161.991 25.38 160.862 24.2405 159.472 24.2436Z" fill="white"/>
</svg>
